<svg width="191" height="162" viewBox="0 0 191 162" fill="none" xmlns="http://www.w3.org/2000/svg">
<rect x="0.392578" width="190" height="161.031" rx="28.8266" transform="rotate(0.139605 0.392578 0)" fill="#183153"/>
<path d="M30.9079 57.9776C27.3206 57.9689 23.9544 57.375 20.8092 56.1959C17.6641 54.9803 14.9412 53.2532 12.6405 51.0147C12.0928 50.4643 11.8198 49.8413 11.8215 49.1458C11.8234 48.3405 12.1914 47.5727 12.9253 46.8424C13.5124 46.2581 14.1537 45.9668 14.8492 45.9685C15.5813 45.9703 16.4588 46.3934 17.4817 47.2378C19.1983 48.816 21.2269 50.0473 23.5674 50.9315C25.9447 51.7792 28.3962 52.2061 30.922 52.2123C33.3379 52.2182 35.2241 51.8201 36.5804 51.0181C37.9369 50.1795 38.6169 49.0098 38.6206 47.509C38.6244 45.9349 37.8954 44.6703 36.4335 43.715C34.9717 42.7231 32.4847 41.8385 28.9725 41.0612C23.448 39.8398 19.4254 38.2377 16.9044 36.2548C14.4201 34.2721 13.1817 31.725 13.1893 28.6136C13.1941 26.6369 13.8573 24.8815 15.1788 23.3472C16.5004 21.7764 18.3336 20.5729 20.6784 19.7367C23.0599 18.864 25.7697 18.4313 28.808 18.4387C32.2122 18.447 35.2308 19.0218 37.8636 20.1629C40.5331 21.2676 42.5609 22.8283 43.947 24.8449C44.4209 25.6148 44.6573 26.2743 44.6559 26.8234C44.6171 27.7384 44.1576 28.5243 43.2775 29.181C42.8008 29.5093 42.2513 29.6727 41.6291 29.6712C40.4943 29.6684 39.5619 29.2269 38.832 28.3466C37.7736 27.0628 36.3484 26.0527 34.5565 25.3162C32.8013 24.5799 30.8804 24.2091 28.7939 24.204C26.1949 24.1977 24.1624 24.5954 22.6962 25.3972C21.2667 26.1624 20.5503 27.2405 20.5469 28.6315C20.5435 30.0225 21.2362 31.1772 22.625 32.0958C24.0504 32.9778 26.5009 33.8257 29.9765 34.6394C33.8178 35.5639 36.9084 36.6147 39.2482 37.7918C41.5882 38.9322 43.287 40.2908 44.3447 41.8674C45.4391 43.4441 45.9835 45.3306 45.9782 47.5269C45.9731 49.6134 45.3463 51.4604 44.0978 53.068C42.8494 54.639 41.0894 55.861 38.8177 56.734C36.5462 57.5704 33.9096 57.9849 30.9079 57.9776ZM71.5323 58.0766C67.2495 58.0661 63.5544 57.2335 60.447 55.5787C57.3763 53.8874 55.0392 51.5573 53.4358 48.5883C51.8325 45.5828 51.0356 42.1399 51.045 38.2598C51.0545 34.3796 51.8681 30.959 53.486 27.9979C55.1039 25.0003 57.4523 22.6815 60.5311 21.0418C63.6467 19.3655 67.3458 18.5326 71.6286 18.5431C75.9114 18.5535 79.5882 19.4044 82.6589 21.0957C85.7663 22.7505 88.1217 25.0807 89.725 28.0862C91.3284 31.0552 92.1254 34.4797 92.1159 38.3599C92.1065 42.24 91.2928 45.6789 89.6748 48.6766C88.057 51.6377 85.6903 53.9564 82.5748 55.6326C79.4959 57.2724 75.8151 58.087 71.5323 58.0766ZM71.5464 52.3113C75.7193 52.3214 78.9619 51.0848 81.2741 48.6012C83.5864 46.0811 84.7478 42.6613 84.7583 38.3419C84.7689 33.9859 83.5693 30.5604 81.1594 28.0654C78.7862 25.5704 75.4215 24.3177 71.0655 24.307C67.0756 24.2973 63.961 25.5709 61.7218 28.1278C59.5194 30.6482 58.413 34.0315 58.4026 38.2777C58.3921 42.5971 59.5368 46.0225 61.8368 48.5539C64.1369 51.0486 67.3734 52.3011 71.5464 52.3113ZM127.44 18.6791C128.538 18.6817 129.416 18.9767 130.073 19.564C130.731 20.1513 131.058 20.9574 131.056 21.9823L131.042 27.7477C131.03 32.6161 129.794 36.5848 127.334 39.6537C124.874 42.6859 121.447 44.5261 117.052 45.1743L117.029 54.893C117.026 55.8813 116.677 56.6858 115.98 57.3064C115.319 57.8904 114.44 58.1811 113.342 58.1785C112.244 58.1758 111.366 57.8808 110.708 57.2935C110.051 56.7062 109.724 55.9001 109.726 54.8752L109.75 45.1565C105.322 44.4868 101.886 42.6299 99.4406 39.5857C96.9955 36.5415 95.7789 32.5668 95.7908 27.6618L95.8049 21.8965C95.8074 20.8715 96.1388 20.067 96.7991 19.4829C97.4594 18.8989 98.3386 18.6082 99.4368 18.6108C100.535 18.6135 101.413 18.9268 102.07 19.5507C102.764 20.1381 103.11 20.9259 103.108 21.9143L103.093 27.8443C103.084 31.6512 103.955 34.5818 105.707 36.6359C107.496 38.6536 110.056 39.6665 113.387 39.6746C116.718 39.6827 119.265 38.6823 121.027 36.6733C122.825 34.6277 123.729 31.7015 123.738 27.8946L123.753 21.9646C123.755 20.9762 124.087 20.19 124.747 19.6059C125.444 18.9853 126.342 18.6764 127.44 18.6791Z" fill="#1EC9FF"/>
<path d="M27.5258 147.353C24.451 147.345 21.9824 146.406 20.1201 144.534C18.3128 142.608 17.0298 139.612 16.271 135.547L8.21931 93.6055C8.1111 92.9463 8.05733 92.4795 8.058 92.2049C8.06135 90.8322 8.50315 89.7901 9.38341 89.0784C10.3186 88.3669 11.5823 88.0131 13.1746 88.0169C16.4691 88.025 18.3873 89.4847 18.9293 92.3961L26.6463 136.479C26.8638 137.358 27.0545 137.962 27.2184 138.292C27.3825 138.567 27.6018 138.705 27.8763 138.705C28.5352 138.707 28.9487 137.994 29.1169 136.567L34.4018 97.1285C34.7931 94.2742 35.8418 92.053 37.5478 90.4648C39.3088 88.8768 41.5345 88.086 44.2249 88.0926C46.9154 88.0991 49.1098 88.9007 50.808 90.4971C52.5612 92.0937 53.6265 94.3201 54.0039 97.1762L59.0965 136.64C59.2578 138.068 59.6678 138.783 60.3267 138.784C60.6013 138.785 60.8212 138.648 60.9866 138.374C61.1521 138.045 61.3458 137.442 61.5676 136.564L69.4993 92.5194C70.0554 89.6106 71.9807 88.1602 75.2752 88.1683C76.8675 88.1721 78.1021 88.532 78.9789 89.248C79.9106 89.9641 80.3747 91.0084 80.3714 92.3811C80.3707 92.6557 80.3147 93.1222 80.2032 93.7809L71.9473 135.683C71.1687 139.744 69.8436 142.734 67.9721 144.651C66.1556 146.513 63.7099 147.441 60.6351 147.433C57.5603 147.426 55.1741 146.486 53.4765 144.615C51.7789 142.744 50.6604 139.832 50.1209 135.877L45.3515 98.9671C45.2437 98.1432 45.1078 97.5664 44.9439 97.2365C44.78 96.9067 44.5333 96.7414 44.2039 96.7406C43.8744 96.7397 43.6269 96.9039 43.4614 97.2329C43.2959 97.562 43.1572 98.1382 43.0454 98.9615L38.0961 135.848C37.5374 139.8 36.4047 142.707 34.6981 144.57C32.9914 146.432 30.6006 147.36 27.5258 147.353ZM106.577 147.545C101.855 147.534 97.7387 146.673 94.2287 144.962C90.7188 143.251 88.0067 140.856 86.0924 137.777C84.2332 134.642 83.3086 130.989 83.3188 126.816C83.3352 120.062 85.2972 114.823 89.2048 111.099C93.1672 107.375 98.7175 105.521 105.855 105.539C110.248 105.549 114.117 106.245 117.463 107.626C120.864 109.007 123.495 110.935 125.356 113.411C127.272 115.831 128.226 118.606 128.218 121.736C128.212 124.372 127.356 126.401 125.65 127.825C124 129.248 121.637 129.956 118.562 129.949L93.7713 129.888C93.7638 132.963 94.8288 135.299 96.9663 136.897C99.1589 138.44 102.369 139.216 106.597 139.227C111.045 139.237 114.836 138.258 117.97 136.289C119.73 135.195 121.104 134.65 122.092 134.652C123.026 134.654 123.931 135.096 124.807 135.977C125.738 136.912 126.202 137.929 126.2 139.027C126.196 140.345 125.645 141.387 124.545 142.153C122.234 143.904 119.541 145.243 116.464 146.169C113.386 147.095 110.091 147.554 106.577 147.545ZM115.286 122.364C116.22 122.366 116.879 122.203 117.264 121.874C117.649 121.491 117.843 120.887 117.845 120.064C117.85 118.142 116.755 116.629 114.561 115.526C112.423 114.422 109.514 113.866 105.835 113.857C102.156 113.848 99.2444 114.61 97.0992 116.142C95.009 117.674 93.9607 119.731 93.9545 122.312L115.286 122.364ZM140.278 147.627C138.576 147.623 137.259 147.181 136.328 146.3C135.397 145.419 134.933 144.21 134.937 142.673L135.067 89.2199C135.071 87.6825 135.54 86.4757 136.476 85.5994C137.411 84.7232 138.73 84.2871 140.432 84.2913C142.08 84.2953 143.396 84.7378 144.382 85.6187C145.369 86.4996 145.86 87.7088 145.856 89.2462L145.883 112.061C147.81 109.979 150.12 108.392 152.813 107.3C155.506 106.209 158.363 105.667 161.383 105.674C168.191 105.691 173.513 107.571 177.347 111.314C181.182 115.002 183.091 120.14 183.075 126.729C183.059 133.318 181.097 138.475 177.189 142.199C173.337 145.868 167.951 147.695 161.033 147.678C157.903 147.67 155.159 147.169 152.801 146.175C150.442 145.126 148.085 143.418 145.73 141.052L145.726 142.699C145.722 144.236 145.225 145.443 144.235 146.319C143.244 147.195 141.925 147.631 140.278 147.627ZM159.407 139.108C163.415 139.118 166.547 138.027 168.804 135.837C171.061 133.646 172.194 130.601 172.203 126.703C172.213 122.804 171.094 119.754 168.849 117.552C166.603 115.351 163.476 114.245 159.467 114.235C155.185 114.225 151.833 115.315 149.411 117.505C146.99 119.695 145.775 122.74 145.765 126.638C145.756 130.537 146.956 133.587 149.367 135.789C151.777 137.991 155.124 139.098 159.407 139.108Z" fill="white"/>
<path d="M113.282 81.5191C110.266 81.5117 107.91 80.6421 106.216 78.9102C104.551 77.1491 103.722 74.7165 103.73 71.6124L103.754 61.729C103.756 60.9091 104.021 60.2654 104.549 59.7982C105.078 59.3309 105.781 59.0984 106.66 59.1005C107.567 59.1027 108.27 59.3387 108.766 59.8085C109.263 60.2782 109.51 60.9231 109.508 61.743L109.484 71.6264C109.48 73.2956 109.916 74.5998 110.793 75.539C111.698 76.4783 112.956 76.95 114.567 76.9539C116.646 76.9589 118.258 76.304 119.403 74.989C120.578 73.674 121.168 71.8599 121.174 69.5464L121.193 61.7715C121.195 60.9515 121.46 60.3079 121.988 59.8407C122.516 59.3734 123.22 59.1409 124.098 59.143C125.006 59.1452 125.708 59.3812 126.205 59.851C126.702 60.3207 126.949 60.9656 126.947 61.7855L126.905 78.9167C126.903 79.7659 126.653 80.4242 126.154 80.8916C125.684 81.3297 125.01 81.5477 124.132 81.5455C123.253 81.5434 122.565 81.3074 122.069 80.8377C121.572 80.3679 121.325 79.7231 121.327 78.9031L121.33 77.6293C120.243 78.9737 119.04 79.9664 117.721 80.6075C116.431 81.2193 114.951 81.5232 113.282 81.5191ZM133.806 81.5691C132.898 81.5669 132.196 81.3309 131.699 80.8611C131.202 80.3914 130.955 79.7465 130.957 78.9266L130.999 61.7954C131.001 60.9462 131.236 60.3025 131.706 59.8644C132.205 59.397 132.894 59.1644 133.772 59.1666C134.651 59.1687 135.338 59.4047 135.835 59.8744C136.332 60.3442 136.579 60.989 136.577 61.809L136.574 63.0828C138.66 60.4816 141.503 59.1854 145.105 59.1942C147.917 59.201 150.125 60.0996 151.732 61.8898C153.367 63.6509 154.181 66.0542 154.174 69.0997L154.15 78.9831C154.148 79.803 153.883 80.4467 153.354 80.9139C152.826 81.3812 152.123 81.6137 151.244 81.6116C150.336 81.6094 149.634 81.3734 149.137 80.9036C148.641 80.4339 148.393 79.789 148.395 78.9691L148.42 69.0857C148.424 67.4165 148.017 66.1124 147.199 65.1733C146.381 64.2342 145.241 63.7629 143.776 63.7593C141.551 63.7539 139.821 64.4085 138.588 65.7233C137.355 67.0088 136.736 68.8229 136.73 71.1657L136.711 78.9406C136.709 79.7606 136.444 80.4042 135.916 80.8714C135.387 81.3387 134.684 81.5712 133.806 81.5691ZM166.76 81.6494C164.945 81.645 163.335 81.3336 161.931 80.7152C160.556 80.0969 159.475 79.245 158.686 78.1595C157.928 77.0449 157.55 75.7701 157.554 74.3352C157.559 72.1682 158.456 70.4426 160.246 69.1584C162.065 67.8744 164.511 67.2361 167.586 67.2436C170.251 67.2501 172.387 67.8263 173.995 68.9723L173.998 67.9181C174.001 66.5417 173.579 65.4865 172.732 64.7523C171.884 64.0181 170.655 63.6491 169.045 63.6451C166.643 63.6393 164.577 64.1467 162.847 65.1675C162.114 65.5757 161.484 65.7791 160.957 65.7778C160.313 65.7763 159.742 65.482 159.246 64.8951C158.925 64.4844 158.765 64.0594 158.766 63.6201C158.768 62.888 159.15 62.2447 159.913 61.6901C160.969 60.9313 162.303 60.3342 163.914 59.8989C165.526 59.4636 167.225 59.2481 169.011 59.2524C172.408 59.2607 175.071 60.0432 177 61.6C178.959 63.1275 179.934 65.2384 179.928 67.9325L179.9 79.2215C179.898 79.9829 179.633 80.5826 179.105 81.0206C178.606 81.4586 177.918 81.6766 177.039 81.6744C176.131 81.6722 175.429 81.4655 174.932 81.0543C174.435 80.6432 174.188 80.0569 174.19 79.2955L174.191 78.8123C172.517 80.7117 170.04 81.6574 166.76 81.6494ZM168.132 77.6115C169.977 77.616 171.412 77.3413 172.439 76.7874C173.494 76.2043 174.024 75.4003 174.026 74.3753C174.028 73.4089 173.503 72.6316 172.45 72.0434C171.398 71.4551 169.993 71.1589 168.236 71.1546C166.654 71.1507 165.424 71.4259 164.544 71.9802C163.693 72.5345 163.267 73.3242 163.264 74.3491C163.262 75.374 163.684 76.1804 164.532 76.7681C165.38 77.3266 166.58 77.6077 168.132 77.6115Z" fill="#FA9B0E"/>
</svg>
