<svg width="617" height="131" viewBox="0 0 617 131" fill="none" xmlns="http://www.w3.org/2000/svg">
<rect width="617" height="130.08" rx="50.667" fill="#CEE2F8"/>
<rect x="2.58496" y="12.3047" width="610.899" height="107.848" rx="50.667" fill="white"/>
<g filter="url(#filter0_d_168_2)">
<path d="M56.3101 85.2896C55.2554 85.2896 54.4116 85.0083 53.7788 84.4458C53.146 83.8833 52.8296 83.1098 52.8296 82.1255V53.2794H42.6517C41.6322 53.2794 40.8236 53.0509 40.2259 52.5938C39.6634 52.1016 39.3822 51.4337 39.3822 50.5899C39.3822 49.711 39.6634 49.043 40.2259 48.586C40.7884 48.0938 41.597 47.8477 42.6517 47.8477H70.0212C71.0759 47.8477 71.8845 48.0938 72.447 48.586C73.0095 49.043 73.2908 49.711 73.2908 50.5899C73.2908 51.4337 72.992 52.1016 72.3943 52.5938C71.8318 53.0509 71.0408 53.2794 70.0212 53.2794H59.8434V82.1255C59.8434 83.0747 59.5094 83.8481 58.8414 84.4458C58.2086 85.0083 57.3648 85.2896 56.3101 85.2896ZM88.3368 85.2896C84.7156 85.2896 81.8855 84.2524 79.8464 82.1782C77.8425 80.0688 76.8405 77.1508 76.8405 73.4242V61.5588C76.8405 60.5744 77.1569 59.801 77.7898 59.2384C78.4226 58.6759 79.2663 58.3947 80.321 58.3947C81.4109 58.3947 82.2547 58.6759 82.8523 59.2384C83.45 59.801 83.7488 60.5744 83.7488 61.5588V73.4242C83.7488 75.4281 84.2762 76.9926 85.3309 78.1176C86.4207 79.2426 87.9325 79.8051 89.8661 79.8051C92.3622 79.8051 94.2958 79.0141 95.6669 77.432C97.0732 75.85 97.7763 73.6703 97.7763 70.8929V61.5588C97.7763 60.5744 98.0927 59.801 98.7256 59.2384C99.3584 58.6759 100.202 58.3947 101.257 58.3947C102.347 58.3947 103.19 58.6759 103.788 59.2384C104.386 59.801 104.685 60.5744 104.685 61.5588V82.1255C104.685 83.145 104.386 83.936 103.788 84.4985C103.226 85.0259 102.417 85.2896 101.362 85.2896C100.308 85.2896 99.4814 85.0083 98.8838 84.4458C98.2861 83.8833 97.9873 83.1098 97.9873 82.1255V80.5961C96.6865 82.2133 95.2451 83.4087 93.663 84.1821C92.1161 84.9204 90.3407 85.2896 88.3368 85.2896ZM89.9188 55.0724C89.5321 54.8614 89.2157 54.5802 88.9696 54.2286C88.7586 53.8419 88.6532 53.4376 88.6532 53.0157C88.6532 52.6993 88.7059 52.418 88.8114 52.1719L91.8173 44.4726C92.3446 43.0664 93.2235 42.3632 94.454 42.3632C95.0517 42.3632 95.6318 42.5039 96.1943 42.7851C97.5302 43.4179 98.1982 44.2617 98.1982 45.3164C98.1982 45.7734 98.04 46.248 97.7236 46.7402L93.4521 54.0704C93.206 54.4571 92.872 54.7735 92.4501 55.0196C92.0634 55.2306 91.6239 55.3361 91.1317 55.3361C90.6395 55.3361 90.2352 55.2482 89.9188 55.0724ZM127.667 85.2896C126.613 85.2896 125.769 85.0083 125.136 84.4458C124.503 83.8833 124.187 83.1098 124.187 82.1255V55.6525C124.187 53.1915 124.89 51.2755 126.296 49.9043C127.738 48.5332 129.724 47.8477 132.255 47.8477H141.167C146.511 47.8477 150.572 48.9551 153.349 51.17C156.127 53.3849 157.515 56.6369 157.515 60.926C157.515 65.2151 156.162 68.4671 153.455 70.6819C150.748 72.8968 146.757 74.0043 141.484 74.0043H131.2V82.1255C131.2 83.0747 130.866 83.8481 130.198 84.4458C129.566 85.0083 128.722 85.2896 127.667 85.2896ZM141.431 68.5725C147.443 68.5725 150.449 66.0237 150.449 60.926C150.449 55.8282 147.443 53.2794 141.431 53.2794H133.468C132.765 53.2794 132.202 53.5079 131.781 53.9649C131.394 54.422 131.2 55.0548 131.2 55.8634V68.5725H141.431ZM165.814 85.2896C164.725 85.2896 163.881 85.0083 163.283 84.4458C162.685 83.8833 162.387 83.1098 162.387 82.1255V61.5588C162.387 60.5392 162.668 59.7658 163.23 59.2384C163.828 58.6759 164.654 58.3947 165.709 58.3947C166.764 58.3947 167.59 58.6759 168.188 59.2384C168.785 59.801 169.084 60.5744 169.084 61.5588V63.299C170.174 61.8928 171.44 60.8205 172.881 60.0822C174.358 59.3088 175.94 58.922 177.627 58.922H178.787C179.912 58.922 180.774 59.1681 181.371 59.6603C182.004 60.1174 182.321 60.7853 182.321 61.6643C182.321 62.5432 182.004 63.2287 181.371 63.7209C180.774 64.178 179.912 64.4065 178.787 64.4065H176.994C174.639 64.4065 172.758 65.1623 171.352 66.6741C169.981 68.1507 169.295 70.1898 169.295 72.7914V82.1255C169.295 83.1098 168.979 83.8833 168.346 84.4458C167.713 85.0083 166.869 85.2896 165.814 85.2896ZM197.64 85.2896C194.617 85.2896 191.98 84.7446 189.73 83.6548C187.48 82.5649 185.74 81.0356 184.509 79.0668C183.314 77.0629 182.716 74.725 182.716 72.0531C182.716 67.7288 183.964 64.3713 186.461 61.9807C188.992 59.59 192.543 58.3947 197.113 58.3947C199.926 58.3947 202.404 58.8341 204.549 59.7131C206.728 60.592 208.416 61.8225 209.611 63.4045C210.842 64.9514 211.457 66.7268 211.457 68.7308C211.457 70.4183 210.912 71.7191 209.822 72.6331C208.768 73.5472 207.256 74.0043 205.287 74.0043H189.414C189.414 75.973 190.099 77.4672 191.47 78.4867C192.877 79.4711 194.933 79.9633 197.64 79.9633C200.488 79.9633 202.914 79.3305 204.918 78.0649C206.043 77.3617 206.922 77.0102 207.555 77.0102C208.152 77.0102 208.732 77.2914 209.295 77.8539C209.893 78.4516 210.191 79.102 210.191 79.8051C210.191 80.6489 209.84 81.3169 209.137 81.809C207.66 82.9341 205.937 83.7954 203.969 84.3931C202 84.9907 199.89 85.2896 197.64 85.2896ZM203.178 69.1526C203.775 69.1526 204.197 69.0472 204.443 68.8362C204.689 68.5901 204.812 68.2034 204.812 67.6761C204.812 66.4456 204.109 65.4788 202.703 64.7756C201.332 64.0725 199.469 63.7209 197.113 63.7209C194.758 63.7209 192.894 64.2131 191.523 65.1975C190.187 66.1819 189.519 67.5003 189.519 69.1526H203.178ZM228.606 85.2896C222.946 85.2896 218.78 83.6548 216.108 80.3852C215.545 79.6469 215.264 78.9789 215.264 78.3813C215.264 77.5375 215.703 76.7992 216.582 76.1664C217.18 75.7797 217.76 75.5863 218.322 75.5863C219.096 75.5863 219.817 75.9203 220.485 76.5883C221.68 77.7836 222.84 78.6449 223.965 79.1723C225.125 79.6645 226.549 79.9106 228.237 79.9106C229.678 79.9106 230.891 79.7172 231.875 79.3305C232.86 78.9438 233.352 78.4692 233.352 77.9067C233.352 77.2035 232.948 76.6059 232.139 76.1137C231.33 75.6215 229.696 74.9886 227.235 74.2152C223.367 73.0199 220.625 71.7718 219.008 70.471C217.391 69.1351 216.582 67.4827 216.582 65.5139C216.582 63.299 217.531 61.5588 219.43 60.2931C221.328 59.0275 223.948 58.3947 227.287 58.3947C229.854 58.3947 232.174 58.7814 234.248 59.5549C236.323 60.3283 237.834 61.3654 238.784 62.6662C239.241 63.2639 239.469 63.8616 239.469 64.4592C239.469 65.303 239.047 65.9885 238.204 66.5159C237.606 66.9026 236.991 67.096 236.358 67.096C235.338 67.096 234.407 66.6741 233.563 65.8303C232.86 65.1623 231.946 64.6526 230.821 64.301C229.731 63.9494 228.535 63.7737 227.235 63.7737C224.774 63.7737 223.543 64.3537 223.543 65.5139C223.543 65.971 223.737 66.3753 224.123 66.7268C224.51 67.0784 225.196 67.4475 226.18 67.8343C227.2 68.221 228.782 68.7483 230.926 69.4163C234.371 70.471 236.78 71.6312 238.151 72.8968C239.557 74.1625 240.26 75.8324 240.26 77.9067C240.26 80.1215 239.241 81.9145 237.202 83.2856C235.163 84.6216 232.297 85.2896 228.606 85.2896ZM258.976 85.2896C255.952 85.2896 253.316 84.7446 251.066 83.6548C248.816 82.5649 247.075 81.0356 245.845 79.0668C244.649 77.0629 244.052 74.725 244.052 72.0531C244.052 67.7288 245.3 64.3713 247.796 61.9807C250.327 59.59 253.878 58.3947 258.448 58.3947C261.261 58.3947 263.74 58.8341 265.884 59.7131C268.064 60.592 269.751 61.8225 270.947 63.4045C272.177 64.9514 272.792 66.7268 272.792 68.7308C272.792 70.4183 272.247 71.7191 271.158 72.6331C270.103 73.5472 268.591 74.0043 266.622 74.0043H250.749C250.749 75.973 251.435 77.4672 252.806 78.4867C254.212 79.4711 256.269 79.9633 258.976 79.9633C261.824 79.9633 264.249 79.3305 266.253 78.0649C267.378 77.3617 268.257 77.0102 268.89 77.0102C269.488 77.0102 270.068 77.2914 270.63 77.8539C271.228 78.4516 271.527 79.102 271.527 79.8051C271.527 80.6489 271.175 81.3169 270.472 81.809C268.995 82.9341 267.273 83.7954 265.304 84.3931C263.335 84.9907 261.226 85.2896 258.976 85.2896ZM264.513 69.1526C265.111 69.1526 265.533 69.0472 265.779 68.8362C266.025 68.5901 266.148 68.2034 266.148 67.6761C266.148 66.4456 265.445 65.4788 264.038 64.7756C262.667 64.0725 260.804 63.7209 258.448 63.7209C256.093 63.7209 254.23 64.2131 252.859 65.1975C251.523 66.1819 250.855 67.5003 250.855 69.1526H264.513ZM280.554 85.2896C279.464 85.2896 278.621 85.0083 278.023 84.4458C277.425 83.8833 277.127 83.1098 277.127 82.1255V61.5588C277.127 60.5392 277.408 59.7658 277.97 59.2384C278.568 58.6759 279.394 58.3947 280.449 58.3947C281.504 58.3947 282.33 58.6759 282.927 59.2384C283.525 59.801 283.824 60.5744 283.824 61.5588V63.0881C286.32 59.9592 289.73 58.3947 294.055 58.3947C297.43 58.3947 300.084 59.467 302.018 61.6115C303.986 63.7209 304.971 66.6038 304.971 70.2601V82.1255C304.971 83.1098 304.654 83.8833 304.021 84.4458C303.389 85.0083 302.545 85.2896 301.49 85.2896C300.4 85.2896 299.557 85.0083 298.959 84.4458C298.361 83.8833 298.062 83.1098 298.062 82.1255V70.2601C298.062 68.2561 297.57 66.6917 296.586 65.5667C295.601 64.4416 294.23 63.8791 292.472 63.8791C289.801 63.8791 287.726 64.6702 286.25 66.2522C284.773 67.7991 284.035 69.9788 284.035 72.7914V82.1255C284.035 83.1098 283.718 83.8833 283.086 84.4458C282.453 85.0083 281.609 85.2896 280.554 85.2896ZM323.915 85.2896C319.204 85.2896 315.548 84.1118 312.946 81.7563C310.344 79.3657 309.044 76.0433 309.044 71.7894C309.044 67.5354 310.344 64.2483 312.946 61.9279C315.548 59.5724 319.204 58.3947 323.915 58.3947C326.411 58.3947 328.661 58.8166 330.665 59.6603C332.704 60.4689 334.304 61.6291 335.464 63.1408C335.886 63.6682 336.097 64.2307 336.097 64.8284C336.097 65.7424 335.622 66.551 334.673 67.2542C334.251 67.5706 333.724 67.7288 333.091 67.7288C332.599 67.7288 332.089 67.6233 331.561 67.4124C331.034 67.1663 330.577 66.8323 330.19 66.4104C329.487 65.6018 328.573 64.9866 327.448 64.5647C326.358 64.1076 325.181 63.8791 323.915 63.8791C321.419 63.8791 319.468 64.5823 318.061 65.9885C316.69 67.3596 316.005 69.2933 316.005 71.7894C316.005 74.3558 316.69 76.3422 318.061 77.7484C319.468 79.1196 321.419 79.8051 323.915 79.8051C326.692 79.8051 329.065 78.8735 331.034 77.0102C332.019 76.0258 332.985 75.5336 333.935 75.5336C334.567 75.5336 335.147 75.7445 335.675 76.1664C336.519 76.8344 336.94 77.643 336.94 78.5922C336.94 79.1899 336.694 79.77 336.202 80.3325C334.585 82.0551 332.774 83.3208 330.77 84.1294C328.802 84.9028 326.517 85.2896 323.915 85.2896ZM345.567 55.1251C344.266 55.1251 343.212 54.7735 342.403 54.0704C341.63 53.3321 341.243 52.3829 341.243 51.2227C341.243 50.0625 341.63 49.1309 342.403 48.4278C343.212 47.6895 344.266 47.3203 345.567 47.3203C346.868 47.3203 347.923 47.6895 348.731 48.4278C349.575 49.1309 349.997 50.0625 349.997 51.2227C349.997 52.3829 349.575 53.3321 348.731 54.0704C347.923 54.7735 346.868 55.1251 345.567 55.1251ZM345.62 85.2896C344.53 85.2896 343.686 85.0083 343.089 84.4458C342.491 83.8833 342.192 83.1098 342.192 82.1255V61.5588C342.192 60.5744 342.491 59.801 343.089 59.2384C343.686 58.6759 344.53 58.3947 345.62 58.3947C346.675 58.3947 347.518 58.6759 348.151 59.2384C348.784 59.801 349.1 60.5744 349.1 61.5588V82.1255C349.1 83.1098 348.784 83.8833 348.151 84.4458C347.518 85.0083 346.675 85.2896 345.62 85.2896ZM365.386 85.2896C363.206 85.2896 361.272 84.9204 359.585 84.1821C357.932 83.4438 356.632 82.4243 355.682 81.1235C354.768 79.7875 354.311 78.2582 354.311 76.5355C354.311 73.9339 355.384 71.8597 357.528 70.3128C359.708 68.7659 362.643 67.9925 366.335 67.9925C369.534 67.9925 372.101 68.678 374.034 70.0491V68.7835C374.034 67.1311 373.524 65.8655 372.505 64.9866C371.485 64.1076 370.009 63.6682 368.075 63.6682C365.192 63.6682 362.714 64.2834 360.64 65.5139C359.761 66.0061 359.005 66.2522 358.372 66.2522C357.598 66.2522 356.913 65.9006 356.315 65.1975C355.929 64.7053 355.735 64.1955 355.735 63.6682C355.735 62.7893 356.192 62.0158 357.106 61.3478C358.372 60.4338 359.972 59.7131 361.905 59.1857C363.839 58.6584 365.878 58.3947 368.022 58.3947C372.101 58.3947 375.3 59.3263 377.62 61.1896C379.976 63.0178 381.153 65.5491 381.153 68.7835V82.3364C381.153 83.2505 380.837 83.9712 380.204 84.4985C379.607 85.0259 378.78 85.2896 377.726 85.2896C376.636 85.2896 375.792 85.0435 375.194 84.5513C374.597 84.0591 374.298 83.3559 374.298 82.4419V81.8618C372.294 84.147 369.323 85.2896 365.386 85.2896ZM367.02 80.4379C369.235 80.4379 370.958 80.1039 372.188 79.436C373.454 78.7328 374.087 77.766 374.087 76.5355C374.087 75.3754 373.454 74.4437 372.188 73.7406C370.923 73.0374 369.235 72.6859 367.126 72.6859C365.227 72.6859 363.751 73.0199 362.696 73.6878C361.677 74.3558 361.167 75.3051 361.167 76.5355C361.167 77.766 361.677 78.7328 362.696 79.436C363.716 80.1039 365.157 80.4379 367.02 80.4379Z" fill="black"/>
<path d="M408.814 84.7622C406.142 84.7622 404.068 84.0591 402.591 82.6528C401.114 81.2465 400.376 79.2778 400.376 76.7465V55.6525C400.376 53.1915 401.079 51.2755 402.486 49.9043C403.927 48.5332 405.913 47.8477 408.445 47.8477H415.828C419.871 47.8477 423.369 48.586 426.322 50.0625C429.275 51.5391 431.525 53.6661 433.072 56.4435C434.654 59.2209 435.445 62.5256 435.445 66.3577C435.445 70.1898 434.654 73.4945 433.072 76.2719C431.525 79.0141 429.275 81.1235 426.322 82.6001C423.404 84.0415 419.906 84.7622 415.828 84.7622H408.814ZM415.3 79.3305C419.695 79.3305 422.964 78.2758 425.109 76.1664C427.253 74.0218 428.326 70.7523 428.326 66.3577C428.326 61.9631 427.236 58.6935 425.056 56.549C422.912 54.3692 419.66 53.2794 415.3 53.2794H409.658C408.954 53.2794 408.392 53.5079 407.97 53.9649C407.583 54.422 407.39 55.0548 407.39 55.8634V76.7465C407.39 77.5551 407.583 78.1879 407.97 78.6449C408.392 79.102 408.954 79.3305 409.658 79.3305H415.3ZM444.6 55.1251C443.299 55.1251 442.244 54.7735 441.436 54.0704C440.662 53.3321 440.276 52.3829 440.276 51.2227C440.276 50.0625 440.662 49.1309 441.436 48.4278C442.244 47.6895 443.299 47.3203 444.6 47.3203C445.901 47.3203 446.955 47.6895 447.764 48.4278C448.608 49.1309 449.03 50.0625 449.03 51.2227C449.03 52.3829 448.608 53.3321 447.764 54.0704C446.955 54.7735 445.901 55.1251 444.6 55.1251ZM444.653 85.2896C443.563 85.2896 442.719 85.0083 442.121 84.4458C441.524 83.8833 441.225 83.1098 441.225 82.1255V61.5588C441.225 60.5744 441.524 59.801 442.121 59.2384C442.719 58.6759 443.563 58.3947 444.653 58.3947C445.707 58.3947 446.551 58.6759 447.184 59.2384C447.817 59.801 448.133 60.5744 448.133 61.5588V82.1255C448.133 83.1098 447.817 83.8833 447.184 84.4458C446.551 85.0083 445.707 85.2896 444.653 85.2896ZM467.424 85.2896C464.682 85.2896 462.239 84.7622 460.094 83.7075C457.985 82.6176 456.332 81.0532 455.137 79.0141C453.942 76.975 453.344 74.5843 453.344 71.8421C453.344 69.0999 453.907 66.7268 455.032 64.7229C456.192 62.6838 457.844 61.1193 459.989 60.0295C462.133 58.9396 464.664 58.3947 467.582 58.3947C469.727 58.3947 471.538 58.7463 473.014 59.4494C474.491 60.1174 475.879 61.1369 477.18 62.508L477.233 47.9004C477.233 46.916 477.549 46.1426 478.182 45.5801C478.815 45.0176 479.659 44.7363 480.714 44.7363C481.768 44.7363 482.594 45.0176 483.192 45.5801C483.825 46.1074 484.141 46.8809 484.141 47.9004V82.1255C484.141 83.145 483.825 83.936 483.192 84.4985C482.594 85.0259 481.768 85.2896 480.714 85.2896C479.659 85.2896 478.815 85.0083 478.182 84.4458C477.549 83.8833 477.233 83.1098 477.233 82.1255V81.0708C474.877 83.8833 471.608 85.2896 467.424 85.2896ZM468.479 79.8051C471.221 79.8051 473.366 79.102 474.913 77.6957C476.46 76.2894 477.233 74.3382 477.233 71.8421C477.233 69.346 476.46 67.3948 474.913 65.9885C473.366 64.5823 471.221 63.8791 468.479 63.8791C465.913 63.8791 463.909 64.5823 462.467 65.9885C461.026 67.3948 460.305 69.346 460.305 71.8421C460.305 74.3382 461.026 76.2894 462.467 77.6957C463.909 79.102 465.913 79.8051 468.479 79.8051ZM493.318 55.1251C492.017 55.1251 490.962 54.7735 490.154 54.0704C489.38 53.3321 488.994 52.3829 488.994 51.2227C488.994 50.0625 489.38 49.1309 490.154 48.4278C490.962 47.6895 492.017 47.3203 493.318 47.3203C494.619 47.3203 495.673 47.6895 496.482 48.4278C497.326 49.1309 497.748 50.0625 497.748 51.2227C497.748 52.3829 497.326 53.3321 496.482 54.0704C495.673 54.7735 494.619 55.1251 493.318 55.1251ZM493.371 85.2896C492.281 85.2896 491.437 85.0083 490.839 84.4458C490.242 83.8833 489.943 83.1098 489.943 82.1255V61.5588C489.943 60.5744 490.242 59.801 490.839 59.2384C491.437 58.6759 492.281 58.3947 493.371 58.3947C494.425 58.3947 495.269 58.6759 495.902 59.2384C496.535 59.801 496.851 60.5744 496.851 61.5588V82.1255C496.851 83.1098 496.535 83.8833 495.902 84.4458C495.269 85.0083 494.425 85.2896 493.371 85.2896ZM524.105 77.9594C524.668 78.4164 524.949 78.9789 524.949 79.6469C524.949 80.3149 524.703 81.0004 524.211 81.7036C523.437 82.8286 522.348 83.7075 520.941 84.3403C519.535 84.9731 517.953 85.2896 516.195 85.2896C513.383 85.2896 511.168 84.5337 509.551 83.022C507.968 81.4751 507.177 79.3657 507.177 76.6937V64.3537H505.015C503.961 64.3537 503.117 64.1076 502.484 63.6155C501.851 63.1233 501.535 62.4729 501.535 61.6643C501.535 60.8205 501.834 60.1525 502.431 59.6603C503.064 59.1681 503.925 58.922 505.015 58.922H507.177V50.959C507.177 49.9747 507.494 49.2012 508.127 48.6387C508.759 48.0762 509.603 47.7949 510.658 47.7949C511.748 47.7949 512.592 48.0762 513.189 48.6387C513.787 49.2012 514.086 49.9747 514.086 50.959V58.922H519.148C520.238 58.922 521.082 59.1681 521.68 59.6603C522.312 60.1525 522.629 60.8205 522.629 61.6643C522.629 62.4729 522.312 63.1233 521.68 63.6155C521.082 64.1076 520.238 64.3537 519.148 64.3537H514.086V77.2738C514.086 78.0473 514.314 78.6625 514.771 79.1196C515.263 79.5766 515.914 79.8051 516.722 79.8051C517.355 79.8051 517.9 79.7172 518.357 79.5414C518.849 79.3305 519.342 78.9965 519.834 78.5395C520.748 77.6606 521.592 77.2211 522.365 77.2211C522.928 77.2211 523.508 77.4672 524.105 77.9594ZM539.298 85.2896C537.118 85.2896 535.185 84.9204 533.497 84.1821C531.845 83.4438 530.544 82.4243 529.595 81.1235C528.681 79.7875 528.224 78.2582 528.224 76.5355C528.224 73.9339 529.296 71.8597 531.44 70.3128C533.62 68.7659 536.556 67.9925 540.247 67.9925C543.447 67.9925 546.013 68.678 547.947 70.0491V68.7835C547.947 67.1311 547.437 65.8655 546.417 64.9866C545.398 64.1076 543.921 63.6682 541.988 63.6682C539.105 63.6682 536.626 64.2834 534.552 65.5139C533.673 66.0061 532.917 66.2522 532.284 66.2522C531.511 66.2522 530.825 65.9006 530.228 65.1975C529.841 64.7053 529.648 64.1955 529.648 63.6682C529.648 62.7893 530.105 62.0158 531.019 61.3478C532.284 60.4338 533.884 59.7131 535.818 59.1857C537.751 58.6584 539.79 58.3947 541.935 58.3947C546.013 58.3947 549.212 59.3263 551.533 61.1896C553.888 63.0178 555.066 65.5491 555.066 68.7835V82.3364C555.066 83.2505 554.749 83.9712 554.117 84.4985C553.519 85.0259 552.693 85.2896 551.638 85.2896C550.548 85.2896 549.704 85.0435 549.107 84.5513C548.509 84.0591 548.21 83.3559 548.21 82.4419V81.8618C546.206 84.147 543.236 85.2896 539.298 85.2896ZM540.933 80.4379C543.148 80.4379 544.87 80.1039 546.101 79.436C547.366 78.7328 547.999 77.766 547.999 76.5355C547.999 75.3754 547.366 74.4437 546.101 73.7406C544.835 73.0374 543.148 72.6859 541.038 72.6859C539.14 72.6859 537.663 73.0199 536.609 73.6878C535.589 74.3558 535.079 75.3051 535.079 76.5355C535.079 77.766 535.589 78.7328 536.609 79.436C537.628 80.1039 539.069 80.4379 540.933 80.4379ZM564.133 85.2896C563.043 85.2896 562.199 85.0083 561.602 84.4458C561.004 83.8833 560.705 83.1098 560.705 82.1255V47.9004C560.705 46.916 561.004 46.1426 561.602 45.5801C562.199 45.0176 563.043 44.7363 564.133 44.7363C565.188 44.7363 566.031 45.0176 566.664 45.5801C567.297 46.1426 567.613 46.916 567.613 47.9004V82.1255C567.613 83.1098 567.297 83.8833 566.664 84.4458C566.031 85.0083 565.188 85.2896 564.133 85.2896Z" fill="#FA9B0E"/>
</g>
<defs>
<filter id="filter0_d_168_2" x="35.8662" y="42.3633" width="535.263" height="49.9576" filterUnits="userSpaceOnUse" color-interpolation-filters="sRGB">
<feFlood flood-opacity="0" result="BackgroundImageFix"/>
<feColorMatrix in="SourceAlpha" type="matrix" values="0 0 0 0 0 0 0 0 0 0 0 0 0 0 0 0 0 0 127 0" result="hardAlpha"/>
<feOffset dy="3.51567"/>
<feGaussianBlur stdDeviation="1.75783"/>
<feComposite in2="hardAlpha" operator="out"/>
<feColorMatrix type="matrix" values="0 0 0 0 0 0 0 0 0 0 0 0 0 0 0 0 0 0 0.25 0"/>
<feBlend mode="normal" in2="BackgroundImageFix" result="effect1_dropShadow_168_2"/>
<feBlend mode="normal" in="SourceGraphic" in2="effect1_dropShadow_168_2" result="shape"/>
</filter>
</defs>
</svg>
